<?xml version="1.0" encoding="utf-8"?>
<!-- Generator: Adobe Illustrator 23.0.1, SVG Export Plug-In . SVG Version: 6.00 Build 0)  -->
<svg version="1.1" id="Capa_1" xmlns="http://www.w3.org/2000/svg" xmlns:xlink="http://www.w3.org/1999/xlink" x="0px" y="0px"
	 viewBox="0 0 217.46 217.46" style="enable-background:new 0 0 217.46 217.46;" xml:space="preserve">
<style type="text/css">
	.st0{fill:#FFFFFF;}
</style>
<path class="st0" d="M108.73,152.87c-24.34,0-44.14-19.8-44.14-44.14S84.4,64.6,108.73,64.6s44.14,19.8,44.14,44.14
	C152.87,133.07,133.07,152.87,108.73,152.87z M108.73,75.5c-18.32,0-33.23,14.91-33.23,33.23s14.91,33.23,33.23,33.23
	c18.32,0,33.23-14.91,33.23-33.23C141.96,90.41,127.05,75.5,108.73,75.5z M108.73,129.39c-11.41,0-20.65-9.25-20.65-20.66
	s9.25-20.65,20.65-20.65c11.41,0,20.66,9.25,20.66,20.65C129.39,120.14,120.14,129.39,108.73,129.39z M108.73,0
	C48.78,0,0,48.78,0,108.73s48.78,108.73,108.73,108.73s108.73-48.78,108.73-108.73S168.69,0,108.73,0z M108.73,46.79
	c-34.15,0-61.94,27.79-61.94,61.94c0,2.76-2.24,5-5,5s-5-2.24-5-5c0-39.67,32.27-71.94,71.94-71.94c2.76,0,5,2.24,5,5
	S111.49,46.79,108.73,46.79z M108.73,26.31c-45.45,0-82.43,36.98-82.43,82.43c0,2.76-2.24,5-5,5s-5-2.24-5-5
	c0-50.96,41.46-92.43,92.43-92.43c2.76,0,5,2.24,5,5S111.49,26.31,108.73,26.31z"/>
</svg>
