<?xml version="1.0" encoding="utf-8"?>
<!-- Generator: Adobe Illustrator 23.0.1, SVG Export Plug-In . SVG Version: 6.00 Build 0)  -->
<svg version="1.1" id="Capa_1" xmlns="http://www.w3.org/2000/svg" xmlns:xlink="http://www.w3.org/1999/xlink" x="0px" y="0px"
	 viewBox="0 0 204 204" style="enable-background:new 0 0 204 204;" xml:space="preserve">
<style type="text/css">
	.st0{fill:#FFFFFF;}
</style>
<path class="st0" d="M182.39,5v169.15c0,2.76-2.24,5-5,5h-9.61V19.61c0-2.76-2.24-5-5-5H50.1V5c0-2.76,2.24-5,5-5h122.29
	C180.15,0,182.39,2.24,182.39,5z M154.2,33.78V199c0,2.76-2.24,5-5,5H26.61c-2.76,0-5-2.24-5-5V33.78c0-2.76,2.24-5,5-5H149.2
	C151.96,28.78,154.2,31.02,154.2,33.78z M40.25,94.25c0,2.76,2.24,5,5,5h71c2.76,0,5-2.24,5-5s-2.24-5-5-5h-71
	C42.49,89.25,40.25,91.49,40.25,94.25z M45.25,79.66h43.76c2.76,0,5-2.24,5-5s-2.24-5-5-5H45.25c-2.76,0-5,2.24-5,5
	S42.49,79.66,45.25,79.66z M135.55,164.4c0-2.76-2.24-5-5-5H45.25c-2.76,0-5,2.24-5,5s2.24,5,5,5h85.31
	C133.32,169.4,135.55,167.16,135.55,164.4z M135.55,144.81c0-2.76-2.24-5-5-5H45.25c-2.76,0-5,2.24-5,5s2.24,5,5,5h85.31
	C133.32,149.81,135.55,147.57,135.55,144.81z M135.55,55.08c0-2.76-2.24-5-5-5H45.25c-2.76,0-5,2.24-5,5s2.24,5,5,5h85.31
	C133.32,60.08,135.55,57.84,135.55,55.08z"/>
</svg>
