<?xml version="1.0" encoding="utf-8"?>
<!-- Generator: Adobe Illustrator 23.0.1, SVG Export Plug-In . SVG Version: 6.00 Build 0)  -->
<svg version="1.1" id="Layer_1" xmlns="http://www.w3.org/2000/svg" xmlns:xlink="http://www.w3.org/1999/xlink" x="0px" y="0px"
	 viewBox="0 0 512 512" style="enable-background:new 0 0 512 512;" xml:space="preserve">
<style type="text/css">
	.st0{fill:#FFFFFF;}
</style>
<g id="surface1">
	<path class="st0" d="M467,0H45C20.19,0,0,20.19,0,45v15h512V45C512,20.19,491.81,0,467,0z"/>
	<path class="st0" d="M0,286c0,24.81,20.19,45,45,45h167V226c0-15.69,7.97-30,21.33-38.26c7.05-4.39,15.25-6.74,23.64-6.74
		c6.91,0,13.84,1.63,20.05,4.7c12.34,6.16,26.12,9.4,39.98,9.4c13.86,0,27.64-3.24,39.86-9.34c6.23-3.12,13.18-4.76,20.14-4.76
		s13.91,1.64,20.13,4.75c12.23,6.12,26.02,9.36,39.87,9.36s27.64-3.24,39.86-9.34c6.24-3.12,13.2-4.78,20.16-4.78
		c5.17,0,10.16,1.18,14.98,2.91V151H0V286z M75,181h92c8.29,0,15,6.71,15,15s-6.71,15-15,15H75c-8.29,0-15-6.71-15-15
		S66.71,181,75,181z M75,241h92c8.29,0,15,6.71,15,15s-6.71,15-15,15H75c-8.29,0-15-6.71-15-15S66.71,241,75,241z"/>
	<path class="st0" d="M0,90h512v31H0V90z"/>
	<path class="st0" d="M490.29,212.58c-33.37,16.7-73.21,16.7-106.58,0c-4.22-2.11-9.2-2.11-13.42,0c-33.37,16.7-73.21,16.7-106.58,0
		c-4.64-2.3-10.17-2.09-14.59,0.66C244.7,215.98,242,220.8,242,226v105c0,78.95,41.23,138.39,122.56,175.9
		c1.66,0.76,2.96,1.35,3.85,1.79c2.83,2.11,5.86,3.31,8.88,3.31c2.65,0,5.27-0.94,7.72-2.99l3.9-1.85
		C490.64,460.3,512,385.33,512,331V226c0-5.2-2.7-10.02-7.12-12.76C500.43,210.47,494.92,210.27,490.29,212.58z M432.61,341.61
		l-60,60c-2.93,2.93-6.77,4.39-10.61,4.39s-7.68-1.46-10.61-4.39l-30-30c-5.86-5.86-5.86-15.35,0-21.21s15.35-5.86,21.21,0
		L362,369.79l49.39-49.39c5.86-5.86,15.35-5.86,21.21,0S438.46,335.75,432.61,341.61z"/>
</g>
</svg>
