<?xml version="1.0" encoding="utf-8"?>
<!-- Generator: Adobe Illustrator 23.0.1, SVG Export Plug-In . SVG Version: 6.00 Build 0)  -->
<svg version="1.1" id="Capa_1" xmlns="http://www.w3.org/2000/svg" xmlns:xlink="http://www.w3.org/1999/xlink" x="0px" y="0px"
	 viewBox="0 0 202.92 202.92" style="enable-background:new 0 0 202.92 202.92;" xml:space="preserve">
<style type="text/css">
	.st0{fill:#FFFFFF;}
</style>
<path class="st0" d="M185.82,168.46c-0.64,2.69-3.34,4.35-6.02,3.7c-2.69-0.64-4.35-3.34-3.7-6.02c2.78-11.66,1.32-21.9-3.91-27.39
	c-3.48-3.65-8.44-4.9-14.74-3.72c-12.51,2.36-20.48,13.17-29.72,25.68c-7.73,10.48-16.49,22.35-29.35,30.3
	c-12.5,7.73-26.77,11.89-40.59,11.89c-1.3,0-2.6-0.04-3.9-0.11c-15.03-0.87-27.41-6.86-33.99-16.44c-8.3-12.1-3.54-24.68,2.93-33.28
	l-5.06-6.76c-3.8-5.07-2.8-12.35,2.22-16.22l32.65-25.16c2.06-1.59,4.52-2.43,7.11-2.43c3.66,0,7.15,1.75,9.34,4.68l12.04,16.09
	c9.59-4.32,20.57-11.66,32.47-23.74c12.03-12.21,19.24-23.42,23.48-33.09l-16.07-12.39c-5.02-3.87-6.02-11.15-2.22-16.22
	l24.83-33.17c2.19-2.93,5.68-4.67,9.34-4.67c2.6,0,5.05,0.84,7.11,2.43l18.79,14.48c0.02,0.02,0.04,0.04,0.07,0.06
	c0.15,0.12,0.27,0.25,0.4,0.38c0.12,0.12,0.24,0.23,0.34,0.36c0.07,0.09,0.13,0.18,0.19,0.27c0.14,0.19,0.26,0.38,0.37,0.59
	c0.02,0.05,0.04,0.1,0.07,0.15c0.13,0.26,0.23,0.53,0.31,0.8c0,0.01,0.01,0.01,0.01,0.02c0.48,1.75,10.96,43.47-45.93,101.2
	c-40.89,41.49-73.75,47.69-89.7,47.69c0,0,0,0,0,0c-6.22,0-9.8-0.95-10.18-1.06c-0.01,0-0.02-0.01-0.03-0.01
	c-0.26-0.08-0.51-0.18-0.76-0.3c-0.07-0.03-0.14-0.06-0.21-0.1c-0.19-0.1-0.36-0.22-0.53-0.34c-0.11-0.08-0.22-0.15-0.32-0.24
	c-0.12-0.1-0.22-0.21-0.33-0.32c-0.13-0.13-0.26-0.26-0.38-0.41c-0.02-0.03-0.05-0.05-0.08-0.08l-3.04-4.07
	c-3.37,5.26-5.7,12.34-0.99,19.2c9.55,13.91,39.36,17.65,64.97,1.81c11.22-6.94,19.02-17.51,26.56-27.74
	c10.05-13.62,19.54-26.48,35.91-29.57c9.56-1.8,18.03,0.56,23.83,6.64C187,139.81,189.39,153.49,185.82,168.46z"/>
</svg>
