<?xml version="1.0" encoding="utf-8"?>
<!-- Generator: Adobe Illustrator 23.0.1, SVG Export Plug-In . SVG Version: 6.00 Build 0)  -->
<svg version="1.1" id="Capa_1" xmlns="http://www.w3.org/2000/svg" xmlns:xlink="http://www.w3.org/1999/xlink" x="0px" y="0px"
	 viewBox="0 0 512 512" style="enable-background:new 0 0 512 512;" xml:space="preserve">
<style type="text/css">
	.st0{fill:#FFFFFF;}
</style>
<g>
	<g>
		<path class="st0" d="M498.68,435.33L297.92,234.56L63.36,0H45.03l-3.74,9.51c-9.88,25.1-14.1,50.78-12.2,74.25
			c2.16,26.75,12.32,49.91,29.39,66.98l183.11,183.11l24.15-24.15l169.29,189.29c16.84,16.84,45.83,17.84,63.67,0
			C516.24,481.44,516.24,452.88,498.68,435.33z"/>
	</g>
</g>
<g>
	<g>
		<path class="st0" d="M156.73,291.44L13.32,434.85c-17.55,17.55-17.55,46.11,0,63.67c16.67,16.67,45.52,18.15,63.67,0
			l143.41-143.41L156.73,291.44z"/>
	</g>
</g>
<g>
	<g>
		<path class="st0" d="M490.25,85.25L408.9,166.6l-21.22-21.22l81.35-81.35L447.81,42.8l-81.35,81.35l-21.22-21.22l81.35-81.35
			L405.37,0.36L299.26,106.47c-12.98,12.98-20.73,30.22-21.83,48.53c-0.28,4.64-1.33,9.21-3.07,13.55l68.93,68.93
			c4.34-1.75,8.91-2.8,13.55-3.07c18.32-1.09,35.55-8.85,48.54-21.83l106.11-106.11L490.25,85.25z"/>
	</g>
</g>
</svg>
