<?xml version="1.0" encoding="utf-8"?>
<!-- Generator: Adobe Illustrator 23.0.1, SVG Export Plug-In . SVG Version: 6.00 Build 0)  -->
<svg version="1.1" id="Layer_1" xmlns="http://www.w3.org/2000/svg" xmlns:xlink="http://www.w3.org/1999/xlink" x="0px" y="0px"
	 viewBox="0 0 1071.28 229.31" style="enable-background:new 0 0 1071.28 229.31;" xml:space="preserve">
<path d="M331.38,141.71l2.71-15.83l-2.13,0.38c-1.57,0.28-2.9,0.5-4,0.66c-1.03,0.15-2.07,0.23-3.08,0.23
	c-1.35,0-2.39-0.34-3.18-1.05c-0.75-0.67-1.14-1.73-1.21-3.26c-0.04-0.83,0.02-1.87,0.19-3.09c0.17-1.27,0.35-2.38,0.53-3.3
	l6.83-36.07h13.94l2.94-16.38H331.2l3.26-17.72h-14.7l-9.31,17.72h-11.35L296,80.37h10.06l-6.58,34.86
	c-0.23,1.28-0.48,2.94-0.73,4.93c-0.26,2.04-0.39,4.16-0.39,6.31c0,2.81,0.47,5.33,1.38,7.5c0.93,2.2,2.27,4.05,3.99,5.5
	c1.69,1.43,3.75,2.52,6.11,3.22c2.3,0.69,4.89,1.04,7.69,1.04c2.46,0,4.81-0.16,7-0.47c2.21-0.31,4.2-0.74,5.93-1.27L331.38,141.71z
	"/>
<polygon points="501.75,142.61 523.87,142.61 538.8,63.99 516.61,63.99 "/>
<path d="M590.44,92.64l22.36-1.86l-0.12-1.56c-0.28-3.55-1.09-6.96-2.39-10.14c-1.32-3.24-3.27-6.11-5.79-8.55
	c-2.51-2.43-5.67-4.39-9.38-5.8c-3.69-1.41-8.09-2.12-13.1-2.12c-2.63,0-5.36,0.18-8.1,0.54c-2.79,0.36-5.58,1.04-8.3,2.03
	c-2.73,0.99-5.43,2.39-8.01,4.15c-2.61,1.78-5.06,4.09-7.29,6.87c-2.22,2.77-4.26,6.14-6.04,10.03c-1.78,3.88-3.27,8.51-4.42,13.73
	c-0.52,2.16-0.86,4.41-1.02,6.67c-0.16,2.21-0.24,4.29-0.24,6.19c0,4.53,0.67,8.75,1.99,12.53c1.34,3.83,3.39,7.18,6.1,9.96
	c2.71,2.78,6.15,4.96,10.24,6.47c4.05,1.5,8.84,2.26,14.24,2.26c5.15,0,9.76-0.61,13.71-1.81c3.98-1.21,7.48-2.96,10.4-5.2
	c2.92-2.24,5.4-4.99,7.37-8.16c1.95-3.13,3.5-6.64,4.62-10.43l0.49-1.67l-21.41-4.06l-0.4,1.32c-1.37,4.52-3.2,7.95-5.45,10.19
	c-2.17,2.17-4.87,3.22-8.25,3.22c-3.53,0-6.1-1.1-7.85-3.35c-1.81-2.33-2.73-6.17-2.73-11.41c0-0.75,0.04-1.58,0.13-2.47
	c0.09-0.93,0.21-1.91,0.36-2.91c0.16-1.04,0.33-2.07,0.5-3.11c0.18-1.04,0.36-2.01,0.52-2.85c1.02-4.05,2.11-7.57,3.23-10.45
	c1.1-2.8,2.34-5.11,3.69-6.87c1.29-1.67,2.78-2.91,4.42-3.66c1.67-0.77,3.69-1.16,6-1.16c3.21,0,5.52,0.96,7.07,2.94
	c1.62,2.08,2.55,5.08,2.76,8.91L590.44,92.64z"/>
<path d="M704.36,63.62c-0.38-0.1-0.87-0.21-1.46-0.33c-0.59-0.12-1.23-0.23-1.92-0.33c-0.67-0.1-1.35-0.18-2.02-0.25
	c-0.7-0.07-1.36-0.11-1.96-0.11c-2.42,0-4.68,0.37-6.72,1.1c-2.03,0.73-3.97,1.85-5.75,3.33c-1.74,1.45-3.44,3.3-5.02,5.52
	c-0.37,0.51-0.74,1.05-1.1,1.6c0.02-0.17,0.04-0.34,0.07-0.51c0.18-1.45,0.35-2.87,0.51-4.27c0.16-1.38,0.3-2.58,0.44-3.6l0.23-1.77
	h-21.27l-0.18,1.35c-0.14,1.02-0.3,2.21-0.51,3.57c-0.2,1.37-0.43,2.81-0.68,4.34c-0.25,1.53-0.51,3.11-0.78,4.74
	c-0.27,1.62-0.56,3.23-0.88,4.85l-11.29,59.77h22.18l7.1-37.13c1.52-8.05,3.98-14.07,7.29-17.89c3.24-3.73,7.32-5.55,12.49-5.55
	c1.66,0,3.05,0.11,4.13,0.32c1.17,0.23,2.26,0.46,3.29,0.69l1.52,0.34l3.7-19.42L704.36,63.62z"/>
<path d="M766.71,130.41c4.06-4.36,7.28-9.74,9.56-15.99c2.27-6.22,3.43-13.29,3.43-21.03c0-4.78-0.75-9.12-2.21-12.9
	c-1.49-3.82-3.71-7.1-6.62-9.76c-2.89-2.65-6.52-4.69-10.78-6.05c-4.21-1.34-9.11-2.02-14.58-2.02c-6.6,0-12.74,1.18-18.24,3.5
	c-5.52,2.33-10.34,5.68-14.31,9.96c-3.98,4.28-7.09,9.51-9.26,15.54c-2.16,6.01-3.25,12.79-3.25,20.15c0,5.02,0.8,9.58,2.39,13.54
	c1.6,3.99,3.91,7.42,6.87,10.19c2.95,2.76,6.54,4.89,10.66,6.32c4.08,1.42,8.68,2.14,13.67,2.14c6.51,0,12.62-1.18,18.17-3.5
	C757.75,138.18,762.64,134.78,766.71,130.41z M756.22,100.72c-0.22,1.98-0.58,4.17-1.06,6.5c-1.01,4.58-2.24,8.26-3.66,10.93
	c-1.39,2.62-2.93,4.65-4.58,6.03c-1.62,1.35-3.33,2.25-5.08,2.65c-1.8,0.42-3.67,0.66-5.49,0.66c-1.9,0-3.74-0.26-5.35-0.85
	c-1.49-0.54-2.76-1.42-3.86-2.68c-1.11-1.27-2-2.95-2.63-5.01c-0.65-2.11-0.98-4.79-0.98-7.97c0-1.61,0.1-3.4,0.3-5.31
	c0.2-1.91,0.54-3.97,1.02-6.13c1.01-4.49,2.25-8.14,3.69-10.83c1.42-2.65,2.98-4.7,4.65-6.1c1.65-1.38,3.39-2.29,5.19-2.73
	c1.91-0.46,3.83-0.69,5.7-0.69c1.99,0,3.79,0.3,5.36,0.88c1.5,0.56,2.8,1.45,3.85,2.62c1.06,1.2,1.9,2.79,2.49,4.74
	c0.61,2.02,0.92,4.51,0.92,7.39C756.59,96.79,756.44,98.77,756.22,100.72z"/>
<ellipse cx="529.85" cy="46.84" rx="11.15" ry="11.45"/>
<path d="M407.37,130.41c4.06-4.36,7.28-9.74,9.56-15.99c2.27-6.22,3.43-13.3,3.43-21.03c0-2.08-0.15-4.07-0.43-5.97h-23.5
	c0,0,0,0,0,0.01c0.61,2.02,0.92,4.51,0.92,7.39c-0.09,1.96-0.25,3.94-0.47,5.89c-0.22,1.98-0.58,4.17-1.06,6.5
	c-1.01,4.58-2.24,8.26-3.66,10.94c-1.39,2.62-2.93,4.65-4.58,6.02c-1.62,1.35-3.33,2.25-5.08,2.65c-1.8,0.42-3.67,0.66-5.49,0.66
	c-1.9,0-3.74-0.26-5.35-0.85c-1.49-0.54-2.76-1.42-3.86-2.68c-1.12-1.27-2-2.95-2.63-5.01c-0.65-2.11-0.98-4.79-0.98-7.97
	c0-1.61,0.1-3.4,0.3-5.31c0.2-1.91,0.54-3.97,1.02-6.13c1.01-4.49,2.25-8.14,3.69-10.83c1.42-2.65,2.98-4.7,4.66-6.1
	c1.65-1.38,3.39-2.29,5.19-2.73c1.91-0.46,3.83-0.69,5.7-0.69c1.99,0,3.79,0.3,5.36,0.88c0.77,0.29,1.48,0.66,2.14,1.12h26.16
	c-0.08-0.23-0.16-0.46-0.25-0.68c-1.49-3.81-3.71-7.1-6.62-9.76c-2.89-2.65-6.52-4.69-10.78-6.05c-4.21-1.34-9.11-2.02-14.58-2.02
	c-6.6,0-12.74,1.18-18.24,3.5c-5.52,2.33-10.34,5.68-14.31,9.96c-3.98,4.28-7.09,9.51-9.26,15.54c-2.16,6.01-3.25,12.79-3.25,20.15
	c0,5.02,0.8,9.58,2.39,13.54c1.6,3.99,3.91,7.42,6.87,10.19c2.95,2.76,6.54,4.89,10.66,6.32c4.08,1.42,8.68,2.14,13.67,2.14
	c6.51,0,12.62-1.18,18.17-3.5C398.41,138.18,403.3,134.78,407.37,130.41z"/>
<path d="M454.04,91.42c0.83-1.47,1.77-2.8,2.78-3.99H431.3l-10.48,55.18h22.26l8.26-43.56C451.84,96.26,452.75,93.7,454.04,91.42z"
	/>
<path d="M478.64,62.67c-3.25,0-6.24,0.4-8.88,1.18c-2.63,0.78-5.06,1.87-7.21,3.24c-2.13,1.36-4.08,2.96-5.82,4.76
	c-0.46,0.48-0.91,0.96-1.35,1.46c0.09-0.73,0.18-1.45,0.27-2.16c0.16-1.33,0.3-2.51,0.41-3.54c0.16-1.43,0.18-1.84,0.18-2.06v-1.56
	H435.2l-1.07,7.51c-0.23,1.55-0.48,3.19-0.78,4.92c-0.28,1.66-0.57,3.25-0.88,4.77h33.47c1.31-0.39,2.63-0.6,3.92-0.6
	c3.05,0,5.32,0.65,6.75,1.92c1.38,1.23,2.06,3.04,2.06,5.52c0,0.53-0.05,1.26-0.16,2.15c-0.11,0.91-0.25,1.9-0.43,2.96
	c-0.18,1.06-0.37,2.12-0.57,3.18c-0.2,1.06-0.39,2.03-0.58,2.93l-22.56,114.12h22.06l23.05-117.53c0.14-0.67,0.29-1.49,0.45-2.47
	c0.16-0.97,0.31-1.99,0.45-3.06c0.14-1.06,0.26-2.13,0.38-3.21c0.12-1.13,0.18-2.15,0.18-3.03c0-6.83-1.92-12.17-5.71-15.86
	C491.48,64.53,485.89,62.67,478.64,62.67z"/>
<path d="M460.35,161.13h-0.82v-0.86h-0.82v1.73h-0.82v-0.43h-0.82v-1.3h-0.82v3.02h-0.82v-2.16h-1.64v1.73h-0.82v-3.45h-0.82v-0.86
	h-0.82v1.73h-0.82v1.3h-1.64v-2.59h-0.82v3.02h-0.82v0.43h-0.82v-0.43h-0.1c-0.01,0.45-0.03,0.91-0.04,1.36
	c-0.5-2.32-0.93-4.64-0.98-6.97h-0.44v2.59h-0.82v0.86h-0.82v-0.86h-0.82v-0.86h-0.82v4.31h-0.82v-3.45h-0.82v0.43h-0.82v0.43h-0.82
	v2.59h-0.82v-6.47h-0.82v5.18h-0.82v-0.86h-0.82v3.02h-0.82v-4.75h-0.82v3.02h-0.82v0.43h-0.82v1.29h-0.82v-1.73h-0.82v1.73h-0.82
	v-0.43h-0.82v0.86h-0.82v-2.59h-1.63v-3.45h-0.82v4.74h-0.82v-1.73h-0.82v1.73h-0.82v-0.86h-0.82v0.43h-0.82v-0.86h-0.82v0.43h-0.82
	v-1.3h-0.82v0.43h-0.82v1.73h-0.82v-0.43h-0.82v1.29h-0.82v-1.73h-0.82v-3.02h-0.82v-0.43h-0.82v2.59h-0.82v2.59h-0.82v-2.59h-0.82
	v-2.16h-0.82v0.86h-0.82v3.45h-0.82v-2.16h-0.82v-2.59h-0.82v3.45h-0.82v1.3h-0.82v-0.43h-1.64v-0.86h-1.63v1.73h-0.82v-2.16h-0.82
	v-0.86h-0.82v1.73h-0.82v-0.43h-0.82v-1.3h-0.82v3.02h-0.82v-2.16h-1.64v1.73h-0.82v-3.45h-0.82v-0.86h-0.82v1.73h-0.82v1.3h-1.64
	v-2.59h-0.82v3.02h-0.82v0.43h-0.71c-0.41-2.01-0.74-4.02-0.78-6.04h-0.44v2.59h-0.82v0.86h-0.82v-0.86h-0.82v-0.86h-0.82v4.31
	h-0.82v-3.45h-0.82v0.43h-0.82v0.43h-0.82v2.59h-0.82v-6.47h-0.82v5.18h-0.82v-0.86h-0.82v3.02h-0.82v-4.75h-0.82v3.02h-0.82v0.43
	h-0.82v1.29h-0.82v-1.73h-0.82v1.73h-0.82v-0.43h-0.82v0.86h-0.82v-2.59h-1.63v-3.45h-0.82v4.74h-0.82v-1.73h-0.82v1.73h-0.82v-0.86
	h-0.82v0.43h-0.82v-0.86h-0.82v0.43h-0.82v-1.3h-0.82v0.43h-0.82v1.73h-0.82v-0.43h-0.82v1.29h-0.82v-1.73h-0.82v-3.02h-0.82v-0.43
	h-0.82v2.59h-0.82v2.59h-0.82v-2.59h-0.82v-2.16h-0.82v0.86h-0.82v3.45h-0.82v-2.16h-0.82v-2.59h-0.82v3.45h-0.82v1.3h-0.82v-0.43
	h-1.64v-0.86h-1.63v1.73h-0.82v-2.16h-0.82v-0.86h-0.82v1.73h-0.82v-0.43h-0.82v-1.3h-0.82v3.02h-0.82v-2.16h-1.64v1.73h-0.82v-3.45
	h-0.82v-0.86h-0.82v1.73h-0.82v1.3h-1.64v-2.59h-0.82v3.02h-0.82v0.43h-0.82v-0.43h-0.1c-0.01,0.45-0.03,0.91-0.04,1.36
	c-0.5-2.32-0.93-4.64-0.98-6.97h-0.44v2.59h-0.82v0.86h-0.82v-0.86h-0.82v-0.86h-0.82v4.31h-0.82v-3.45h-0.82v0.43h-0.82v0.43h-0.82
	v2.59h-0.82v-6.47h-0.82v5.18h-0.82v-0.86h-0.82v3.02h-0.82v-4.75h-0.82v3.02h-0.82v0.43h-0.82v1.29h-0.82v-1.73h-0.82v1.73h-0.82
	v-0.43h-0.82v0.86h-0.82v-2.59h-1.63v-3.45h-0.82v4.74h-0.82v-1.73h-0.82v1.73h-0.82v-0.86h-0.82v0.43h-0.82v-0.86h-0.82v0.43h-0.82
	v-1.3h-0.82v0.43h-0.82v1.73h-0.82v-0.43h-0.82v1.29h-0.82v-1.73h-0.82v-3.02h-0.82v-0.43h-0.82v2.59h-0.82v2.59h-0.82v-2.59h-0.82
	v-2.16h-0.82v0.86h-0.82v3.45h-0.82v-2.16h-0.82v-2.59h-0.82v3.45h-0.82v1.3h-0.82v-0.43h-1.64v-0.86h-1.63v1.73h-0.82v-2.16h-0.82
	v-0.86h-0.82v1.73h-0.82v-0.43h-0.82v-1.3h-0.82v3.02h-0.82v-2.16h-0.23c-0.03-1.44-0.04-2.89-0.03-4.33h-0.41v-2.84h-1.7v-8.53
	h-1.72v-7.11h-1.71v-1.42h-1.72v4.27h-1.71v1.42h-1.71v4.27h-1.72V131.2h-1.71v1.42h-1.72v-9.96h-1.71v-4.26h-1.71v8.53h-1.72
	v-14.22h-1.71v1.42h-1.72v1.43h-1.71v11.37h-1.71v-5.69h-1.72v8.53h-1.71V111.3h-1.72v7.11h-1.71v17.06h-1.71V124.1h-3.43v-17.07
	h-1.72v24.17h-1.71v18.48h-1.71v-8.53h-3.43v-22.75h-1.72v12.8h-1.71v4.26h-1.71v-12.8h-1.72v17.06h-1.71v-7.11h-1.72v2.84h-1.71
	v15.64h-1.71v-32.7h-1.72v15.64h-1.71v-7.11h-1.72v11.37h-1.71v-4.26h-1.71v2.84h-1.72v2.85h-3.43v-5.69h-1.71v-2.85h-1.71v-9.96
	h-1.72v11.38h-1.71v12.8h-1.72v-18.48h-1.71v7.11h-1.71v-4.27h-1.72v-11.37h-1.71V144h-1.72v-2.84h-1.71v-9.96h-1.71v14.22h-1.72
	v-5.69h-3.43v-2.85h-1.71v-5.69h-1.71v9.96H170V144h-1.71v-1.42h-1.72v-5.69h-1.71v-2.84h-1.71v7.11h-1.72v4.26h-1.71v8.53h-1.72
	v-2.85h-1.71v-5.69h-1.71v1.42h-1.72v-5.69h-1.71v-1.42h-1.71v11.37h-1.72v1.42h-1.71v-1.42h-3.43v-9.95h-1.71v9.95h-1.72v1.42
	h-1.71v-51.18h-1.72v17.06h-1.71V144h-1.71v-11.37h-1.72v-4.27h-1.71v14.22h-1.72v4.27h-1.71v-7.11h-1.71v5.69h-1.72v-4.26h-1.71
	v-2.85h-1.72v-5.69h-1.71v7.11h-1.71V144h-1.72v8.53h-1.71v-1.42h-1.72v-2.84h-1.71V144h-1.71v-2.84h-1.72v9.95h-1.71v-15.64h-1.72
	v9.96h-1.71v1.42H98.1v5.69h-1.72v-11.37h-1.71v-1.42h-1.72v-22.75h-1.71v31.28h-1.71v2.84h-1.72v-5.69h-1.71v-5.69h-3.43v-7.11
	h-1.71v-7.11h-1.72v17.06h-1.71v5.69h-3.43v2.84h-1.71v-4.26H70.7v8.53H69v-9.96h-1.72v-8.53h-1.71v12.8h-1.71v-1.42h-1.72v8.53
	h-1.71v-4.26h-1.72v-17.07h-1.71v21.33H55.3v2.85h-1.72v-18.48h-1.71v14.22h-1.72v4.26h-1.71v-9.96h-1.71v12.8h-1.72v-1.43h-1.71
	v-8.53h-1.72v7.11h-1.71v-2.85h-1.71v1.43h-3.43v-1.43h-3.43v-2.84h-1.71v-1.42H27.9v8.53h-1.71v-1.42h-1.71v1.42h-1.05
	c-0.57-1.74-0.97-3.55-1.17-5.39v1.12h-1.71v-9.95h-1.71v12.8h-1.71v1.42H13.7v-4.26h-1.71v5.69H8.56v-4.26H6.85v2.83H5.14v-1.42
	H3.43v2.85H1.71v1.42H0v2.85h1.71v1.42h1.71v2.85h1.71v-1.42h1.71v2.85h1.71v-4.28h3.43v5.69h1.71v-4.26h3.42v1.42h1.71v12.8h1.71
	v-9.96h1.71v1.95c0.31-2.07,0.68-4.13,1.05-6.21h1.17v1.42h1.71v-1.42h1.71v8.53h1.72v-1.42h1.71v-2.85h3.43v-1.42h3.43v1.42h1.71
	v-2.85h1.71v7.11h1.72v-8.53h1.71v-1.43h1.72v12.8h1.71v-9.96h1.71v4.26h1.72v14.22h1.71v-18.48h1.72v2.85h1.71v21.33h1.71v-17.06
	h1.72v-4.26h1.71v8.53h1.72v-1.42h1.71v12.8h1.71v-8.54H69v-9.96h1.71v8.54h1.72v-4.26h1.71v2.83h3.43v5.69h1.71v17.06h1.72v-7.11
	h1.71v-7.11h3.43v-5.69h1.71v-5.68h1.72v2.83h1.71v31.28h1.71v-22.74h1.72v-1.43h1.71v-11.37h1.72v5.69h1.71v1.42h1.71v9.96h1.72
	v-15.64h1.71v9.94h1.72v-2.83h1.71v-4.28h1.71v-2.83h1.72v-1.43h1.71v8.54h1.72v4.26h1.71v7.11h1.71v-5.69h1.72v-2.85h1.71v-4.26
	h1.72v5.69h1.71v-7.11h1.71v4.26h1.72v14.22h1.71v-4.26h1.72v-11.37h1.71v25.59h1.71v17.05h1.72v-51.18h1.71v1.43h1.72v9.94h1.71
	v-9.94h3.43v-1.43h1.71v1.43h1.72v11.37h1.71v-1.43h1.71v-5.68h1.72v1.42h1.71v-5.68h1.71v-2.85h1.72v8.53h1.71v4.26h1.72v7.11h1.71
	v-2.83h1.71v-5.69h1.72v-1.42H170v2.83h1.72v9.96h1.71v-5.68h1.71v-2.85h3.43v-5.69h1.72v14.22h1.71v-9.96h1.71v-2.83h1.72v25.59
	h1.71v-11.37h1.72v-4.28h1.71v7.11h1.71v-18.48h1.72v12.8h1.71v11.37h1.72v-9.96h1.71v-2.85h1.71v-5.68h3.43v2.85h1.72v2.83h1.71
	v-4.26h1.71v11.37h1.72v-7.11h1.71v15.65h1.72v-32.7h1.71v15.64h1.71v2.85h1.72v-7.11h1.71v17.07h1.72v-12.8h1.71v4.26h1.71v12.8
	h1.72V189.5h3.43v-8.53h1.71v18.48h1.71v24.17h1.72v-17.07h3.43v-11.37h1.71v17.07h1.71v7.11h1.72v-18.48h1.71v8.53h1.72v-5.69h1.71
	v11.37h1.71v1.43h1.72v1.42h1.71v-14.22h1.72v8.54h1.71v-4.26h1.71v-9.96h1.72v1.42h1.71v-15.64h1.72v4.26h1.71v1.42h1.71v4.28h1.72
	v-1.43h1.71v-7.11h1.72v-8.53h1.7v-2.85h1.11c-0.16-1.94-0.3-3.87-0.41-5.81c-0.01-0.22-0.02-0.44-0.03-0.66v-0.66h0.82v3.02h0.82
	v-1.29h0.82v-0.43h0.82v1.73h0.82v-0.86h0.82v-2.16h0.82v1.73h1.63v-0.86h1.64v-0.43h0.82v1.29h0.82v3.45h0.82v-2.59h0.82v-2.16
	h0.82v3.45h0.82v0.86h0.82v-2.16h0.82v-2.59h0.82v2.59h0.82v2.59h0.82v-0.43h0.82v-3.02h0.82v-1.73h0.82v1.29h0.82v-0.43h0.82v1.73
	h0.82v0.43h0.82v-1.29h0.82v0.43h0.82v-0.86h0.82v0.43h0.82v-0.86h0.82v1.73h0.82v-1.73h0.82v4.74h0.82v-3.45h1.63v-2.59h0.82v0.86
	h0.82v-0.43h0.82v1.73h0.82v-1.73h0.82v1.29h0.82v0.43h0.82v3.02h0.82v-4.75h0.82v3.02h0.82v-0.86h0.82v5.18h0.82v-6.47h0.82v2.59
	h0.82v0.43h0.82v0.43h0.82v-3.45h0.82v4.31h0.82v-0.86h0.82v-0.86h0.82v0.86h0.82v2.59h1.23c-0.02-0.39-0.01-0.78,0.03-1.17
	c0.08-0.61,0.21-1.24,0.37-1.87v-2.14h0.59c0.06-0.22,0.12-0.44,0.18-0.66c0,0,0,0,0-0.01c-0.25-1.2-0.53-2.4-0.79-3.6
	c1.29,2.21,2.07,4.49,2.36,6.85h0.04v-2.59h1.64v1.29h0.82v1.73h0.82v-0.86h0.82v-3.45h0.82v1.72h1.64v-2.16h0.82v3.02h0.82v-1.29
	h0.82v-0.43h0.82v1.73h0.82v-0.86h0.82v-2.16h0.82v1.73h1.63v-0.86h1.64v-0.43h0.82v1.29h0.82v3.45h0.82v-2.59h0.82v-2.16h0.82v3.45
	h0.82v0.86h0.82v-2.16h0.82v-2.59h0.82v2.59h0.82v2.59h0.82v-0.43h0.82v-3.02h0.82v-1.73h0.82v1.29h0.82v-0.43h0.82v1.73h0.82v0.43
	h0.82v-1.29h0.82v0.43h0.82v-0.86h0.82v0.43h0.82v-0.86h0.82v1.73h0.82v-1.73h0.82v4.74h0.82v-3.45h1.63v-2.59h0.82v0.86h0.82v-0.43
	h0.82v1.73h0.82v-1.73h0.82v1.29h0.82v0.43h0.82v3.02h0.82v-4.75h0.82v3.02h0.82v-0.86h0.82v5.18h0.82v-6.47h0.82v2.59h0.82v0.43
	h0.82v0.43h0.82v-3.45h0.82v4.31h0.82v-0.86h0.82v-0.86h0.82v0.86h0.82v2.59h1.23c-0.02-0.39-0.01-0.78,0.03-1.17
	c0.08-0.61,0.21-1.24,0.37-1.87v-2.14h0.59c0.06-0.22,0.12-0.44,0.18-0.66c0,0,0,0,0-0.01c-0.15-0.73-0.32-1.47-0.48-2.2
	c0.85,1.77,1.38,3.59,1.61,5.45h0.04v-2.59h1.64v1.29h0.82v1.73h0.82v-0.86h0.82v-3.45h0.82v1.72h1.64v-2.16h0.82v3.02h0.82v-1.29
	h0.82v-0.43h0.82v1.73h0.82v-0.86h0.82v-2.16h0.82v1.73h1.63v-0.86h1.64v-0.43h0.82v1.29h0.82v3.45h0.82v-2.59h0.82v-2.16h0.82v3.45
	h0.82v0.86h0.82v-2.16h0.82v-2.59h0.82v2.59h0.82v2.59h0.82v-0.43h0.82v-3.02h0.82v-1.73h0.82v1.29h0.82v-0.43h0.82v1.73h0.82v0.43
	h0.82v-1.29h0.82v0.43h0.82v-0.86h0.82v0.43h0.82v-0.86h0.82v1.73h0.82v-1.73h0.82v4.74h0.82v-3.45h1.63v-2.59h0.82v0.86h0.82v-0.43
	h0.82v1.73h0.82v-1.73h0.82v1.29h0.82v0.43h0.82v3.02h0.82v-4.75h0.82v3.02h0.82v-0.86h0.82v5.18h0.82v-6.47h0.82v2.59h0.82v0.43
	h0.82v0.43h0.82v-3.45h0.82v4.31h0.82v-0.86h0.82v-0.86h0.82v0.86h0.82v2.59h1.23c-0.02-0.39-0.01-0.78,0.03-1.17
	c0.08-0.61,0.21-1.24,0.37-1.87v-2.14h0.59c0.06-0.22,0.12-0.44,0.18-0.66c0,0,0,0,0-0.01c-0.25-1.2-0.53-2.4-0.79-3.6
	c1.29,2.21,2.07,4.49,2.36,6.85h0.04v-2.59h1.64v1.29h0.82v1.73h0.82v-0.86h0.82v-3.45h0.82v1.72h1.64v-2.16h0.82v3.02h0.82v-1.29
	h0.82v-0.43h0.82v1.73h0.22l1.42-7.18V161.13z"/>
<path d="M849.67,130.41c4.06-4.36,7.28-9.74,9.56-15.99c2.27-6.22,3.43-13.3,3.43-21.03c0-2.08-0.15-4.07-0.43-5.97h-23.5
	c0,0,0,0,0,0.01c0.61,2.02,0.92,4.51,0.92,7.39c-0.09,1.96-0.25,3.94-0.47,5.89c-0.22,1.98-0.58,4.17-1.06,6.5
	c-1.01,4.58-2.24,8.26-3.66,10.93c-1.39,2.62-2.93,4.65-4.58,6.03c-1.62,1.35-3.33,2.25-5.08,2.65c-1.8,0.42-3.67,0.66-5.49,0.66
	c-1.9,0-3.74-0.26-5.35-0.85c-1.49-0.54-2.76-1.42-3.86-2.68c-1.12-1.27-2-2.95-2.63-5.01c-0.65-2.11-0.98-4.79-0.98-7.97
	c0-1.61,0.1-3.4,0.3-5.31c0.2-1.91,0.54-3.97,1.02-6.13c1.01-4.49,2.25-8.14,3.69-10.83c1.42-2.65,2.98-4.7,4.65-6.1
	c1.65-1.38,3.39-2.29,5.19-2.73c1.91-0.46,3.83-0.69,5.7-0.69c1.99,0,3.79,0.3,5.36,0.88c0.77,0.29,1.48,0.66,2.14,1.12h26.16
	c-0.08-0.23-0.16-0.46-0.25-0.68c-1.49-3.81-3.71-7.1-6.62-9.76c-2.89-2.65-6.52-4.69-10.79-6.05c-4.21-1.34-9.11-2.02-14.58-2.02
	c-6.6,0-12.74,1.18-18.24,3.5c-5.52,2.33-10.34,5.68-14.31,9.96c-3.98,4.28-7.09,9.51-9.26,15.54c-2.16,6.01-3.25,12.79-3.25,20.15
	c0,5.02,0.8,9.58,2.39,13.54c1.6,3.99,3.91,7.42,6.87,10.19c2.95,2.76,6.54,4.89,10.66,6.32c4.08,1.42,8.68,2.14,13.67,2.14
	c6.51,0,12.62-1.18,18.17-3.5C840.71,138.18,845.6,134.78,849.67,130.41z"/>
<path d="M958.12,62.67c-3.09,0-5.92,0.44-8.4,1.3c-2.47,0.86-4.75,2.09-6.78,3.65c-1.99,1.53-3.83,3.34-5.49,5.38
	c-0.88,1.09-1.75,2.24-2.6,3.45c-1.05-3.86-2.94-6.97-5.66-9.27c-3.53-2.99-8.33-4.51-14.28-4.51c-2.85,0-5.45,0.35-7.73,1.04
	c-2.3,0.7-4.41,1.72-6.27,3.04c-1.85,1.3-3.57,2.91-5.12,4.77c-0.3,0.36-0.59,0.72-0.89,1.1c0.07-0.47,0.14-0.94,0.21-1.41
	c0.21-1.34,0.38-2.52,0.51-3.56c0.19-1.44,0.22-1.86,0.22-2.09v-1.56h-21.32l-0.49,3.5c-0.16,1.11-0.36,2.44-0.61,3.99
	c-0.25,1.55-0.52,3.2-0.81,4.94c-0.28,1.66-0.57,3.25-0.88,4.77h30.31c1.31-0.53,2.7-0.81,4.16-0.81c4.87,0,7.04,2.12,7.04,6.88
	c0,0.51-0.03,1.13-0.1,1.85c-0.07,0.75-0.16,1.56-0.27,2.42c-0.11,0.87-0.23,1.72-0.37,2.57c-0.13,0.85-0.27,1.64-0.4,2.36
	l-8.71,46.17h22.05L933.79,99c0.56-2.89,1.36-5.54,2.38-7.87c1-2.29,2.19-4.27,3.57-5.89c1.33-1.58,2.84-2.8,4.48-3.63
	c1.61-0.82,3.34-1.23,5.14-1.23c4.75,0,6.92,2.13,7.04,6.88v0.35c0,0.6-0.03,1.31-0.1,2.1c-0.06,0.79-0.16,1.59-0.29,2.4l-0.41,2.64
	c-0.13,0.82-0.27,1.57-0.4,2.26l-19.79,116.35h22.05l20.08-117.54c0.36-1.78,0.7-3.76,1-5.89c0.3-2.16,0.46-4.14,0.46-5.87
	c0-6.82-1.83-12.15-5.44-15.83C969.95,64.53,964.75,62.67,958.12,62.67z"/>
<path d="M939.64,161.99v1.29h-0.82v-1.73H938v-3.02h-0.82v-0.43h-0.82v2.59h-0.82v2.59h-0.82v-2.59h-0.82v-2.16h-0.82v0.86h-0.82
	v3.45h-0.82v-2.16h-0.82v-2.59h-0.82v3.45H929v1.3h-0.82v-0.43h-1.64v-0.86h-1.63v1.73h-0.82v-2.16h-0.82v-0.86h-0.82v1.73h-0.82
	v-0.43h-0.82v-1.3h-0.82v3.02h-0.82v-2.16h-1.64v1.73h-0.82v-3.45h-0.82v-0.86h-0.82v1.73h-0.82v1.3h-1.64v-2.59h-0.82v3.02h-0.82
	v0.43h-0.82v-0.43h-0.09c-0.01,0.45-0.03,0.91-0.04,1.36c-0.5-2.32-0.93-4.64-0.98-6.97h-0.44v2.59h-0.82v0.86h-0.82v-0.86h-0.82
	v-0.86h-0.82v4.31h-0.82v-3.45h-0.82v0.43h-0.82v0.43h-0.82v2.59h-0.82v-6.47h-0.82v5.18h-0.82v-0.86h-0.82v3.02h-0.82v-4.75h-0.82
	v3.02h-0.82v0.43h-0.82v1.29h-0.82v-1.73h-0.82v1.73h-0.82v-0.43h-0.82v0.86h-0.82v-2.59h-1.63v-3.45h-0.82v4.74h-0.82v-1.73h-0.82
	v1.73h-0.82v-0.86h-0.82v0.43h-0.82v-0.86h-0.82v0.43h-0.82v-1.3h-0.82v0.43h-0.82v1.73h-0.82v-0.43h-0.82v1.29h-0.82v-1.73h-0.82
	v-3.02h-0.82v-0.43h-0.82v2.59h-0.82v2.59h-0.82v-2.59h-0.82v-2.16h-0.82v0.86h-0.82v3.45h-0.82v-2.16h-0.82v-2.59h-0.82v3.45h-0.82
	v1.3h-0.82v-0.43h-1.64v-0.86h-1.63v1.73h-0.82v-2.16h-0.82v-0.86h-0.82v1.73h-0.82v-0.43h-0.82v-1.3h-0.82v3.02h-0.82v-2.16h-1.64
	v1.73h-0.82v-3.45h-0.82v-0.86h-0.82v1.73h-0.82v1.3h-1.64v-2.59h-0.82v3.02h-0.82v0.43h-0.71c-0.41-2.01-0.74-4.02-0.78-6.04h-0.44
	v2.59h-0.82v0.86h-0.82v-0.86h-0.82v-0.86h-0.82v4.31h-0.82v-3.45h-0.82v0.43h-0.82v0.43h-0.82v2.59h-0.82v-6.47h-0.82v5.18h-0.82
	v-0.86h-0.82v3.02h-0.82v-4.75h-0.82v3.02h-0.82v0.43h-0.82v1.29h-0.82v-1.73h-0.82v1.73h-0.82v-0.43h-0.82v0.86h-0.82v-2.59h-1.63
	v-3.45h-0.82v4.74h-0.82v-1.73h-0.82v1.73h-0.82v-0.86h-0.82v0.43h-0.82v-0.86h-0.82v0.43h-0.82v-1.3h-0.82v0.43h-0.82v1.73h-0.82
	v-0.43h-0.82v1.29h-0.82v-1.73h-0.82v-3.02h-0.82v-0.43h-0.82v2.59h-0.82v2.59h-0.82v-2.59h-0.82v-2.16h-0.82v0.86h-0.82v3.45h-0.82
	v-2.16h-0.82v-2.59h-0.82v3.45h-0.82v1.3h-0.82v-0.43h-1.64v-0.86h-1.63v1.73h-0.82v-2.16h-0.82v-0.86h-0.82v1.73h-0.82v-0.43h-0.82
	v-1.3h-0.82v3.02h-0.82v-2.16h-1.64v1.73h-0.82v-3.45h-0.82v-0.86h-0.82v1.73h-0.82v1.3h-1.64v-2.59h-0.82v3.02h-0.82v0.43h-0.82
	v-0.43h-0.09c-0.01,0.45-0.03,0.91-0.04,1.36c-0.5-2.32-0.93-4.64-0.98-6.97h-0.44v2.59h-0.82v0.86h-0.82v-0.86h-0.82v-0.86h-0.82
	v4.31h-0.82v-3.45h-0.82v0.43h-0.82v0.43h-0.82v2.59h-0.82v-6.47h-0.82v5.18h-0.82v-0.86h-0.82v3.02h-0.82v-4.75h-0.82v3.02h-0.82
	v0.43h-0.82v1.29h-0.82v-1.73h-0.82v1.73h-0.82v-0.43h-0.82v0.86h-0.82v-2.59h-1.63v-3.45h-0.82v4.74h-0.82v-1.73h-0.82v1.73h-0.82
	v-0.86h-0.82v0.43h-0.82v-0.86h-0.82v0.43h-0.82v-1.3h-0.82v0.43h-0.82v1.73h-0.82v-0.43h-0.82v1.29h-0.82v-1.73h-0.82v-3.02h-0.82
	v-0.43h-0.82v2.59h-0.82v2.59h-0.82v-2.59h-0.82v-2.16h-0.82v0.86h-0.82v3.45h-0.82v-2.16h-0.82v-2.59h-0.82v3.45h-0.82v1.3h-0.82
	v-0.43h-1.64v-0.86h-1.63v1.73h-0.82v-2.16h-0.82v-0.86h-0.82v0.79c-0.28-1.55-0.49-3.11-0.53-4.67h-0.44v2.59h-0.82v0.86h-0.82
	v-0.86h-0.82v-0.86h-0.82v4.31h-0.82v-3.45h-0.82v0.43h-0.82v0.43h-0.82v2.59h-0.82v-6.47h-0.82v5.18h-0.82v-0.86h-0.82v3.02h-0.82
	v-4.75h-0.82v3.02h-0.82v0.43h-0.82v1.29h-0.82v-1.73h-0.82v1.73h-0.82v-0.43h-0.82v0.86h-0.82v-2.59h-1.63v-3.45h-0.82v4.74h-0.82
	v-1.73h-0.82v1.73h-0.82v-0.86h-0.82v0.43h-0.82v-0.86h-0.82v0.43h-0.82v-1.3h-0.82v0.43h-0.82v1.73h-0.82v-0.43h-0.82v1.29h-0.82
	v-1.73h-0.82v-3.02h-0.82v-0.43h-0.82v2.59h-0.82v2.59h-0.82v-2.59h-0.82v-2.16h-0.82v0.86h-0.82v3.45h-0.82v-2.16h-0.82v-2.59
	h-0.82v3.45h-0.82v1.3h-0.82v-0.43h-1.64v-0.86h-1.63v1.73h-0.82v-2.16h-0.82v-0.86h-0.82v1.73h-0.82v-0.43h-0.82v-1.3h-0.82v3.02
	h-0.82v-2.16h-1.64v1.73h-0.82v-3.45h-0.82v-0.86h-0.82v1.73h-0.82v1.3h-1.64v-2.59h-0.82v3.02h-0.82v0.43h-0.82v-0.43h-0.1
	c-0.01,0.45-0.03,0.91-0.04,1.36c-0.5-2.32-0.93-4.64-0.98-6.97h-0.44v2.59h-0.82v0.86h-0.82v-0.86h-0.82v-0.86h-0.82v4.31h-0.82
	v-3.45h-0.82v0.43h-0.82v0.43h-0.82v2.59h-0.82v-6.47h-0.82v5.18h-0.82v-0.86h-0.82v3.02h-0.82v-4.75h-0.82v3.02h-0.82v0.43h-0.82
	v1.29h-0.82v-1.73h-0.82v1.73h-0.82v-0.43h-0.82v0.86h-0.82v-2.59h-1.63v-3.45h-0.82v4.74h-0.82v-1.73h-0.82v1.73h-0.82v-0.86h-0.82
	v0.43h-0.82v-0.86h-0.82v0.43h-0.82v-1.3h-0.82v0.43h-0.82v1.73h-0.82v-0.43h-0.82v1.29h-0.82v-1.73h-0.82v-3.02h-0.82v-0.43h-0.82
	v2.59h-0.82v2.59h-0.82v-2.59h-0.82v-2.16h-0.82v0.86h-0.82v3.45h-0.82v-2.16h-0.82v-2.59h-0.82v3.45h-0.82v1.3h-0.82v-0.43h-1.64
	v-0.86h-1.63v1.73h-0.82v-2.16h-0.82v-0.86h-0.82v1.73h-0.82v-0.43h-0.82v-1.3h-0.82v3.02h-0.82v-2.16h-1.64v1.73h-0.82v-3.45h-0.82
	v-0.86h-0.82v1.73h-0.82v1.3h-1.64v-2.59h-0.82v3.02h-0.82v0.43h-0.71c-0.41-2.01-0.74-4.02-0.78-6.04h-0.44v2.59h-0.82v0.86h-0.82
	v-0.86h-0.82v-0.86h-0.82v4.31h-0.82v-3.45h-0.82v0.43h-0.82v0.43h-0.82v2.59h-0.82v-6.47h-0.82v5.18h-0.82v-0.86h-0.82v3.02h-0.82
	v-4.75h-0.82v3.02h-0.82v0.43h-0.82v1.29h-0.82v-1.73h-0.82v1.73h-0.82v-0.43h-0.82v0.86h-0.82v-2.59h-1.63v-3.45h-0.82v4.74h-0.82
	v-1.73h-0.82v1.73h-0.82v-0.86H601v0.43h-0.82v-0.86h-0.82v0.43h-0.82v-1.3h-0.82v0.43h-0.82v1.73h-0.82v-0.43h-0.82v1.29h-0.82
	v-1.73h-0.82v-3.02h-0.82v-0.43h-0.82v2.59h-0.82v2.59h-0.82v-2.59h-0.82v-2.16h-0.82v0.86h-0.82v3.45h-0.82v-2.16h-0.82v-2.59
	h-0.82v3.45h-0.82v1.3h-0.82v-0.43h-1.64v-0.86h-1.63v1.73h-0.82v-2.16h-0.82v-0.86h-0.82v1.73h-0.82v-0.43h-0.82v-1.3h-0.82v3.02
	h-0.82v-2.16h-1.64v1.73h-0.82v-3.45h-0.82v-0.86h-0.82v1.73h-0.82v1.3h-1.64v-2.59h-0.82v3.02h-0.82v0.43h-0.82v-0.43h-0.09
	c-0.01,0.45-0.03,0.91-0.04,1.36c-0.5-2.32-0.93-4.64-0.98-6.97h-0.44v2.59h-0.82v0.86h-0.82v-0.86h-0.82v-0.86h-0.82v4.31h-0.82
	v-3.45h-0.82v0.43h-0.82v0.43h-0.82v2.59h-0.82v-6.47h-0.82v5.18h-0.82v-0.86h-0.82v3.02h-0.82v-4.75h-0.82v3.02h-0.82v0.43h-0.82
	v1.29h-0.82v-1.73h-0.82v1.73h-0.82v-0.43h-0.82v0.86h-0.82v-2.59h-1.63v-3.45h-0.82v4.74h-0.82v-1.73h-0.82v1.73h-0.82v-0.86h-0.82
	v0.43h-0.82v-0.86h-0.82v0.43h-0.82v-1.3h-0.82v0.43h-0.82v1.73h-0.82v-0.43h-0.82v1.29h-0.82v-1.73h-0.82v-3.02h-0.82v-0.43h-0.82
	v2.59h-0.82v2.59h-0.82v-2.59h-0.82v-2.16h-0.82v0.86h-0.82v3.45h-0.82v-2.16h-0.82v-2.59h-0.82v3.45h-0.82v1.3h-0.82v-0.43h-1.64
	v-0.86h-1.63v1.73h-0.82v-2.16h-0.82v-0.86h-0.82v1.73h-0.82v-0.43h-0.82v-1.3h-0.82v3.02h-0.82v-2.16h-1.64v1.73h-0.82v-3.45h-0.82
	v-0.86h-0.82v1.73h-0.82v1.3h-1.64v-2.59h-0.82v3.02h-0.82v0.43h-0.82v-0.43h-0.1c-0.01,0.45-0.03,0.91-0.04,1.36
	c-0.5-2.32-0.93-4.64-0.98-6.97h-0.44v2.59h-0.82v0.86h-0.82v-0.86h-0.82v-0.86h-0.82v4.31h-0.82v-3.45h-0.82v0.43h-0.82v0.43h-0.82
	v2.59h-0.82v-6.47h-0.82v5.18h-0.82v-0.86h-0.82v3.02h-0.82v-4.75h-0.82v3.02h-0.82v0.43h-0.82v1.29h-0.82v-1.55l-0.98,5h0.16v1.73
	h0.82v-1.73h0.82v1.29h0.82v0.43h0.82v3.02h0.82v-4.75h0.82v3.02h0.82v-0.86h0.82v5.18h0.82v-6.47h0.82v2.59h0.82v0.43h0.82v0.43
	h0.82v-3.45h0.82v4.31h0.82v-0.86h0.82v-0.86h0.82v0.86h0.82v2.59h1.23c-0.02-0.39-0.01-0.78,0.03-1.17
	c0.08-0.61,0.21-1.24,0.37-1.87v-2.14h0.59c0.06-0.22,0.12-0.44,0.18-0.66c0,0,0,0,0-0.01c-0.25-1.2-0.53-2.4-0.79-3.6
	c1.29,2.21,2.07,4.49,2.36,6.85h0.04v-2.59h1.64v1.29h0.82v1.73h0.82v-0.86h0.82v-3.45h0.82v1.72h1.64v-2.16h0.82v3.02h0.82v-1.29
	h0.82v-0.43h0.82v1.73h0.82v-0.86h0.82v-2.16h0.82v1.73h1.63v-0.86h1.64v-0.43h0.82v1.29h0.82v3.45h0.82v-2.59h0.82v-2.16h0.82v3.45
	h0.82v0.86h0.82v-2.16h0.82v-2.59h0.82v2.59h0.82v2.59h0.82v-0.43h0.82v-3.02h0.82v-1.73h0.82v1.29h0.82v-0.43h0.82v1.73h0.82v0.43
	h0.82v-1.29h0.82v0.43h0.82v-0.86h0.82v0.43h0.82v-0.86h0.82v1.73h0.82v-1.73h0.82v4.74h0.82v-3.45h1.63v-2.59h0.82v0.86h0.82v-0.43
	h0.82v1.73h0.82v-1.73h0.82v1.29h0.82v0.43h0.82v3.02h0.82v-4.75h0.82v3.02h0.82v-0.86h0.82v5.18h0.82v-6.47h0.82v2.59h0.82v0.43
	h0.82v0.43h0.82v-3.45h0.82v4.31h0.82v-0.86h0.82v-0.86h0.82v0.86h0.82v2.59h1.23c-0.02-0.39-0.01-0.78,0.03-1.17
	c0.08-0.61,0.21-1.24,0.37-1.87v-2.14h0.59c0.06-0.22,0.12-0.44,0.18-0.66c0,0,0,0,0-0.01c-0.25-1.2-0.53-2.4-0.79-3.6
	c1.29,2.21,2.07,4.49,2.36,6.85h0.04v-2.59h1.64v1.29h0.82v1.73h0.82v-0.86h0.82v-3.45h0.82v1.72h1.64v-2.16h0.82v3.02h0.82v-1.29
	h0.82v-0.43h0.82v1.73h0.82v-0.86h0.82v-2.16h0.82v1.73h1.63v-0.86h1.64v-0.43h0.82v1.29h0.82v3.45h0.82v-2.59h0.82v-2.16h0.82v3.45
	h0.82v0.86h0.82v-2.16h0.82v-2.59h0.82v2.59h0.82v2.59h0.82v-0.43h0.82v-3.02h0.82v-1.73h0.82v1.29h0.82v-0.43h0.82v1.73h0.82v0.43
	h0.82v-1.29h0.82v0.43h0.82v-0.86H601v0.43h0.82v-0.86h0.82v1.73h0.82v-1.73h0.82v4.74h0.82v-3.45h1.63v-2.59h0.82v0.86h0.82v-0.43
	h0.82v1.73h0.82v-1.73h0.82v1.29h0.82v0.43h0.82v3.02h0.82v-4.75h0.82v3.02h0.82v-0.86h0.82v5.18h0.82v-6.47h0.82v2.59h0.82v0.43
	h0.82v0.43h0.82v-3.45h0.82v4.31h0.82v-0.86h0.82v-0.86h0.82v0.86h0.82v2.59h1.23c-0.02-0.39-0.01-0.78,0.03-1.17
	c0.08-0.61,0.21-1.24,0.37-1.87v-2.14h0.59c0.06-0.22,0.12-0.44,0.18-0.66c0,0,0,0,0-0.01c-0.15-0.73-0.32-1.47-0.48-2.2
	c0.85,1.77,1.38,3.59,1.61,5.45h0.04v-2.59h1.64v1.29h0.82v1.73h0.82v-0.86h0.82v-3.45h0.82v1.72h1.64v-2.16h0.82v3.02h0.82v-1.29
	h0.82v-0.43h0.82v1.73h0.82v-0.86h0.82v-2.16h0.82v1.73h1.63v-0.86h1.64v-0.43h0.82v1.29h0.82v3.45h0.82v-2.59h0.82v-2.16h0.82v3.45
	h0.82v0.86h0.82v-2.16h0.82v-2.59h0.82v2.59h0.82v2.59h0.82v-0.43h0.82v-3.02h0.82v-1.73h0.82v1.29h0.82v-0.43h0.82v1.73h0.82v0.43
	h0.82v-1.29h0.82v0.43h0.82v-0.86h0.82v0.43h0.82v-0.86h0.82v1.73h0.82v-1.73h0.82v4.74h0.82v-3.45h1.63v-2.59h0.82v0.86h0.82v-0.43
	h0.82v1.73h0.82v-1.73h0.82v1.29h0.82v0.43h0.82v3.02h0.82v-4.75h0.82v3.02h0.82v-0.86h0.82v5.18h0.82v-6.47h0.82v2.59h0.82v0.43
	h0.82v0.43h0.82v-3.45h0.82v4.31h0.82v-0.86h0.82v-0.86h0.82v0.86h0.82v2.59h1.23c-0.02-0.39-0.01-0.78,0.03-1.17
	c0.08-0.61,0.21-1.24,0.37-1.87v-2.14h0.59c0.06-0.22,0.12-0.44,0.18-0.66c0,0,0,0,0-0.01c-0.25-1.2-0.53-2.4-0.79-3.6
	c1.29,2.21,2.07,4.49,2.36,6.85h0.04v-2.59h1.64v1.29h0.82v1.73h0.82v-0.86h0.82v-3.45h0.82v1.72h1.64v-2.16h0.82v3.02h0.82v-1.29
	h0.82v-0.43h0.82v1.73h0.82v-0.86h0.82v-2.16h0.82v1.73h1.63v-0.86h1.64v-0.43h0.82v1.29h0.82v3.45h0.82v-2.59h0.82v-2.16h0.82v3.45
	h0.82v0.86h0.82v-2.16h0.82v-2.59h0.82v2.59h0.82v2.59h0.82v-0.43h0.82v-3.02h0.82v-1.73h0.82v1.29h0.82v-0.43h0.82v1.73h0.82v0.43
	h0.82v-1.29h0.82v0.43h0.82v-0.86h0.82v0.43h0.82v-0.86h0.82v1.73h0.82v-1.73h0.82v4.74h0.82v-3.45h1.63v-2.59h0.82v0.86h0.82v-0.43
	h0.82v1.73h0.82v-1.73h0.82v1.29h0.82v0.43h0.82v3.02h0.82v-4.75h0.82v3.02h0.82v-0.86h0.82v5.18h0.82v-6.47h0.82v2.59h0.82v0.43
	h0.82v0.43h0.82v-3.45h0.82v4.31h0.82v-0.86h0.82v-0.86h0.82v0.86h0.82v2.59h1.23c-0.02-0.39-0.01-0.78,0.03-1.17
	c0.08-0.61,0.21-1.24,0.37-1.87v-0.85h0.16v-0.86h0.82v-2.16h0.82v1.73h1.63v-0.86h1.64v-0.43h0.82v1.29h0.82v3.45h0.82v-2.59h0.82
	v-2.16h0.82v3.45h0.82v0.86h0.82v-2.16h0.82v-2.59h0.82v2.59h0.82v2.59h0.82v-0.43h0.82v-3.02h0.82v-1.73h0.82v1.29h0.82v-0.43h0.82
	v1.73h0.82v0.43h0.82v-1.29h0.82v0.43h0.82v-0.86h0.82v0.43h0.82v-0.86h0.82v1.73h0.82v-1.73h0.82v4.74h0.82v-3.45h1.63v-2.59h0.82
	v0.86h0.82v-0.43h0.82v1.73h0.82v-1.73h0.82v1.29h0.82v0.43h0.82v3.02h0.82v-4.75h0.82v3.02h0.82v-0.86h0.82v5.18h0.82v-6.47h0.82
	v2.59h0.82v0.43h0.82v0.43h0.82v-3.45h0.82v4.31h0.82v-0.86h0.82v-0.86h0.82v0.86h0.82v2.59h1.23c-0.02-0.39-0.01-0.78,0.03-1.17
	c0.08-0.61,0.21-1.24,0.37-1.87v-2.14h0.59c0.06-0.22,0.12-0.44,0.18-0.66c0,0,0,0,0-0.01c-0.25-1.2-0.53-2.4-0.79-3.6
	c1.29,2.21,2.07,4.49,2.36,6.85h0.04v-2.59h1.64v1.29h0.82v1.73h0.82v-0.86h0.82v-3.45h0.82v1.72h1.64v-2.16h0.82v3.02h0.82v-1.29
	h0.82v-0.43h0.82v1.73h0.82v-0.86h0.82v-2.16h0.82v1.73h1.63v-0.86h1.64v-0.43h0.82v1.29h0.82v3.45h0.82v-2.59h0.82v-2.16h0.82v3.45
	h0.82v0.86h0.82v-2.16h0.82v-2.59h0.82v2.59h0.82v2.59h0.82v-0.43h0.82v-3.02h0.82v-1.73h0.82v1.29h0.82v-0.43h0.82v1.73h0.82v0.43
	h0.82v-1.29h0.82v0.43h0.82v-0.86h0.82v0.43h0.82v-0.86h0.82v1.73h0.82v-1.73h0.82v4.74h0.82v-3.45h1.63v-2.59h0.82v0.86h0.82v-0.43
	h0.82v1.73h0.82v-1.73h0.82v1.29h0.82v0.43h0.82v3.02h0.82v-4.75h0.82v3.02h0.82v-0.86h0.82v5.18h0.82v-6.47h0.82v2.59h0.82v0.43
	h0.82v0.43h0.82v-3.45h0.82v4.31h0.82v-0.86h0.82v-0.86h0.82v0.86h0.82v2.59h1.23c-0.02-0.39-0.01-0.78,0.03-1.17
	c0.08-0.61,0.21-1.24,0.37-1.87v-2.14h0.59c0.06-0.22,0.12-0.44,0.18-0.66c0,0,0,0,0-0.01c-0.15-0.73-0.32-1.47-0.48-2.2
	c0.85,1.77,1.38,3.59,1.61,5.45h0.04v-2.59h1.64v1.29h0.82v1.73h0.82v-0.86h0.82v-3.45h0.82v1.72h1.64v-2.16h0.82v3.02h0.82v-1.29
	h0.82v-0.43h0.82v1.73h0.82v-0.86h0.82v-2.16h0.82v1.73h1.63v-0.86h1.64v-0.43h0.82v1.29h0.82v3.45h0.82v-2.59h0.82v-2.16h0.82v3.45
	h0.82v0.86h0.82v-2.16h0.82v-2.59h0.82v2.59h0.82v2.59h0.82v-0.43h0.82v-3.02h0.82v-1.73h0.82v1.29h0.82v-0.43h0.82v1.73h0.82v0.43
	h0.82v-1.29h0.82v0.43h0.82v-0.86h0.82v0.43h0.82v-0.86h0.82v1.73h0.82v-1.73h0.82v4.74h0.82v-3.45h1.63v-2.59h0.82v0.86h0.82v-0.43
	h0.82v1.73h0.82v-1.73h0.82v1.29h0.82v0.43h0.82v3.02h0.82v-4.75h0.82v3.02h0.82v-0.86h0.82v5.18h0.82v-6.47h0.82v2.59h0.82v0.43
	h0.82v0.43h0.82v-3.45h0.82v4.31h0.82v-0.86h0.82v-0.86h0.82v0.86h0.82v2.59h1.23c-0.02-0.39-0.01-0.78,0.03-1.17
	c0.08-0.61,0.21-1.24,0.37-1.87v-2.14h0.59c0.06-0.22,0.12-0.44,0.18-0.66c0,0,0,0,0-0.01c-0.25-1.2-0.53-2.4-0.79-3.6
	c1.29,2.21,2.07,4.49,2.36,6.85h0.04v-2.59h1.64v1.29h0.82v1.73h0.82v-0.86h0.82v-3.45h0.82v1.72h1.64v-2.16h0.82v3.02h0.82v-1.29
	h0.82v-0.43h0.82v1.73h0.82v-0.86h0.82v-2.16h0.82v1.73h1.63v-0.86h1.64v-0.43H929v1.29h0.82v3.45h0.82v-2.59h0.82v-2.16h0.82v3.45
	h0.82v0.86h0.82v-2.16h0.82v-2.59h0.82v2.59h0.82v2.59h0.82v-0.43H938v-3.02h0.82v-1.73h0.47l0.81-4.74H939.64z"/>
<polygon points="942.91,169.26 942.83,169.75 942.91,169.75 "/>
<path d="M1071.21,165.6c-0.03-0.64-0.02-1.27,0.03-1.89h-0.77v-2.59h-1.63v-3.45h-0.82v4.74h-0.82v-1.73h-0.82v1.73h-0.82v-0.86
	h-0.82v0.43h-0.82v-0.86h-0.82v0.43h-0.82v-1.3h-0.82v0.43h-0.82v1.73h-0.82v-0.43h-0.82v1.29h-0.82v-1.73h-0.82v-3.02h-0.82v-0.43
	h-0.82v2.59h-0.82v2.59h-0.82v-2.59h-0.82v-2.16h-0.82v0.86h-0.82v3.45h-0.82v-2.16H1050v-2.59h-0.82v3.45h-0.82v1.3h-0.82v-0.43
	h-1.64v-0.86h-1.63v1.73h-0.82v-2.16h-0.82v-0.86h-0.82v1.73H1041v-0.43h-0.82v-1.3h-0.82v3.02h-0.82v-2.16h-1.64v1.73h-0.82v-3.45
	h-0.82v-0.86h-0.82v1.73h-0.82v1.3h-1.64v-2.59h-0.82v3.02h-0.82v0.43h-0.82v-0.43h-0.09c-0.01,0.45-0.03,0.91-0.04,1.36
	c-0.5-2.32-0.93-4.64-0.98-6.97h-0.44v2.59h-0.82v0.86h-0.82v-0.86h-0.82v-0.86h-0.82v4.31h-0.82v-3.45h-0.82v0.43h-0.82v0.43h-0.82
	v2.59h-0.82v-6.47h-0.82v5.18h-0.82v-0.86h-0.82v3.02h-0.82v-4.75h-0.82v3.02h-0.82v0.43h-0.82v1.29h-0.82v-1.73h-0.82v1.73h-0.82
	v-0.43h-0.82v0.86h-0.82v-2.59h-1.63v-3.45h-0.82v4.74h-0.82v-1.73h-0.82v1.73h-0.82v-0.86h-0.82v0.43h-0.82v-0.86h-0.82v0.43h-0.82
	v-1.3h-0.82v0.43h-0.82v1.73h-0.82v-0.43h-0.82v1.29h-0.82v-1.73h-0.82v-3.02h-0.82v-0.43h-0.82v2.59h-0.82v2.59h-0.82v-2.59h-0.82
	v-2.16h-0.82v0.86h-0.82v3.45h-0.82v-2.16h-0.82v-2.59h-0.82v3.45h-0.82v1.3h-0.82v-0.43h-1.64v-0.86h-1.63v1.73h-0.82v-2.16h-0.82
	v-0.86h-0.82v1.73h-0.82v-0.43h-0.82v-1.3h-0.82v3.02h-0.82v-2.16h-1.64v1.73h-0.82v-3.45h-0.82v-0.86h-0.82v1.73h-0.82v1.3h-1.64
	v-2.59h-0.82v3.02h-0.82v0.43h-0.45l-0.31,1.8c1.28,2.21,2.07,4.48,2.35,6.83h0.04v-2.59h1.64v1.29h0.82v1.73h0.82v-0.86h0.82v-3.45
	h0.82v1.72h1.64v-2.16h0.82v3.02h0.82v-1.29h0.82v-0.43h0.82v1.73h0.82v-0.86h0.82v-2.16h0.82v1.73h1.63v-0.86h1.64v-0.43h0.82v1.29
	h0.82v3.45h0.82v-2.59h0.82v-2.16h0.82v3.45h0.82v0.86h0.82v-2.16h0.82v-2.59h0.82v2.59h0.82v2.59h0.82v-0.43h0.82v-3.02h0.82v-1.73
	h0.82v1.29h0.82v-0.43h0.82v1.73h0.82v0.43h0.82v-1.29h0.82v0.43h0.82v-0.86h0.82v0.43h0.82v-0.86h0.82v1.73h0.82v-1.73h0.82v4.74
	h0.82v-3.45h1.63v-2.59h0.82v0.86h0.82v-0.43h0.82v1.73h0.82v-1.73h0.82v1.29h0.82v0.43h0.82v3.02h0.82v-4.75h0.82v3.02h0.82v-0.86
	h0.82v5.18h0.82v-6.47h0.82v2.59h0.82v0.43h0.82v0.43h0.82v-3.45h0.82v4.31h0.82v-0.86h0.82v-0.86h0.82v0.86h0.82v2.59h1.23
	c-0.02-0.39-0.01-0.78,0.03-1.17c0.08-0.61,0.21-1.24,0.37-1.87v-2.14h0.59c0.06-0.22,0.12-0.44,0.18-0.66c0,0,0,0,0-0.01
	c-0.25-1.2-0.53-2.4-0.79-3.6c1.29,2.21,2.07,4.49,2.36,6.85h0.04v-2.59h1.64v1.29h0.82v1.73h0.82v-0.86h0.82v-3.45h0.82v1.72h1.64
	v-2.16h0.82v3.02h0.82v-1.29h0.82v-0.43h0.82v1.73h0.82v-0.86h0.82v-2.16h0.82v1.73h1.63v-0.86h1.64v-0.43h0.82v1.29h0.82v3.45h0.82
	v-2.59h0.82v-2.16h0.82v3.45h0.82v0.86h0.82v-2.16h0.82v-2.59h0.82v2.59h0.82v2.59h0.82v-0.43h0.82v-3.02h0.82v-1.73h0.82v1.29h0.82
	v-0.43h0.82v1.73h0.82v0.43h0.82v-1.29h0.82v0.43h0.82v-0.86h0.82v0.43h0.82v-0.86h0.82v1.73h0.82v-1.73h0.82v4.74h0.82v-3.45h1.63
	v-2.59h0.81C1071.26,166.07,1071.22,165.84,1071.21,165.6z"/>
<path d="M969.52,173.64c-0.02-0.39-0.01-0.78,0.03-1.17c0.08-0.61,0.21-1.24,0.37-1.87v-2.14h0.59c0.06-0.22,0.12-0.44,0.18-0.66
	c0,0,0,0,0-0.01c-0.25-1.19-0.52-2.38-0.79-3.57l-1.61,9.41H969.52z"/>
<path d="M892.97,91.27c0.6-1.41,1.29-2.68,2.04-3.84h-24.45l-10.48,55.18h22.25l8.26-43.4C891.15,96.32,891.95,93.65,892.97,91.27z"
	/>
<g>
	<path d="M359.19,38.02c-0.85,0.12-1.78,0.18-2.21-0.2c-0.19-0.16-0.3-0.48-0.32-0.95c-0.02-0.31,0.01-0.71,0.08-1.18
		c0.07-0.53,0.15-0.97,0.22-1.35l2.84-14.59h5.99l1.48-8.03h-5.88l1.4-7.41h-7.38l-4,7.41h-5.01l-1.56,8.03h4.32l-2.69,13.87
		c-0.1,0.55-0.21,1.25-0.32,2.09c-0.11,0.88-0.17,1.79-0.17,2.71c0,1.26,0.22,2.39,0.64,3.37c0.44,1,1.07,1.85,1.88,2.52
		c0.79,0.65,1.74,1.14,2.83,1.46c1.04,0.3,2.21,0.46,3.47,0.46c1.08,0,2.12-0.07,3.09-0.2c0.98-0.14,1.86-0.32,2.63-0.55l0.74-0.22
		l1.37-7.81l-1.74,0.3C360.22,37.87,359.65,37.96,359.19,38.02z"/>
	<path d="M389.6,11.17c-1.45,0-2.79,0.17-3.98,0.52c-1.18,0.34-2.27,0.82-3.24,1.42c-0.55,0.34-1.08,0.72-1.57,1.13
		c0.07-0.33,0.13-0.65,0.19-0.95L383.59,0h-10.7l-8.82,45.76h10.76l3.64-18.69c0.21-1.1,0.57-2.11,1.09-3
		c0.53-0.91,1.14-1.69,1.83-2.32c0.68-0.62,1.42-1.1,2.2-1.44c0.75-0.32,1.51-0.48,2.25-0.48c1.15,0,1.99,0.22,2.5,0.66
		c0.46,0.4,0.69,1,0.69,1.85c0,0.2-0.02,0.48-0.06,0.83c-0.05,0.38-0.11,0.78-0.18,1.21c-0.08,0.44-0.16,0.88-0.24,1.32
		c-0.09,0.44-0.17,0.84-0.25,1.22l-3.74,18.84h10.68l3.89-20.03c0.06-0.29,0.13-0.64,0.2-1.06c0.07-0.41,0.14-0.85,0.2-1.3
		c0.06-0.45,0.11-0.9,0.16-1.36c0.05-0.5,0.08-0.93,0.08-1.33c0-3.03-0.89-5.4-2.63-7.06C395.41,12,392.87,11.17,389.6,11.17z"/>
	<path d="M432.17,19.11c-0.56-1.64-1.45-3.07-2.63-4.26c-1.17-1.19-2.66-2.11-4.42-2.76c-1.72-0.63-3.77-0.95-6.08-0.95
		c-2.63,0-5.09,0.48-7.31,1.43c-2.24,0.95-4.2,2.37-5.82,4.2c-1.61,1.82-2.88,4.06-3.77,6.68c-0.89,2.59-1.34,5.58-1.34,8.89
		c0,2.08,0.31,4,0.94,5.7c0.63,1.74,1.59,3.25,2.83,4.48c1.24,1.23,2.79,2.19,4.59,2.85c1.77,0.65,3.83,0.98,6.1,0.98
		c2.18,0,4.09-0.21,5.68-0.62c1.63-0.42,3.05-1.04,4.23-1.83c1.18-0.8,2.2-1.78,3.03-2.91c0.78-1.08,1.49-2.29,2.1-3.6l0.61-1.3
		l-9.62-2.91l-0.42,1.07c-0.24,0.63-0.54,1.21-0.87,1.74c-0.31,0.5-0.68,0.93-1.09,1.28c-0.4,0.34-0.86,0.62-1.36,0.82
		c-0.49,0.19-1.07,0.29-1.73,0.29c-1.39,0-2.39-0.39-3.05-1.19c-0.71-0.86-1.07-2.19-1.07-3.95c0-0.42,0.01-0.83,0.04-1.23
		c0-0.04,0.01-0.08,0.01-0.12h20.33l0.21-0.99c0.22-1.06,0.4-2.19,0.53-3.37c0.13-1.18,0.2-2.24,0.2-3.16
		C433,22.47,432.72,20.7,432.17,19.11z M415.59,20.03c0.55-0.46,1.12-0.78,1.69-0.94c0.62-0.18,1.21-0.27,1.75-0.27
		c1.23,0,2.17,0.35,2.9,1.07c0.71,0.71,1.07,1.94,1.07,3.66c0,0.13,0,0.26,0,0.39h-9.8c0.23-0.74,0.5-1.39,0.8-1.92
		C414.49,21.18,415.02,20.51,415.59,20.03z"/>
</g>
<g>
	<path d="M501.17,191.31h4.35c2.19,0,3.69,0.45,4.5,1.35c0.82,0.9,0.99,2.36,0.52,4.39c-0.64,2.77-1.92,4.45-3.83,5.04l0.57,10.83
		h-2.91l-0.49-10.14h-2.35l-2.34,10.14h-3.01L501.17,191.31z M503.18,200.62c1.3,0,2.29-0.26,2.97-0.77
		c0.68-0.52,1.17-1.45,1.49-2.8c0.21-0.89,0.27-1.59,0.19-2.09c-0.08-0.51-0.34-0.88-0.78-1.12c-0.44-0.24-1.12-0.36-2.02-0.36
		h-1.33l-1.65,7.15H503.18z"/>
	<path d="M517.68,191.31h8.37l-0.52,2.24h-5.36l-1.65,7.15h4.35l-0.49,2.13h-4.35l-1.83,7.92h5.42l-0.5,2.16h-8.43L517.68,191.31z"
		/>
	<path d="M527.51,211.25c-0.58-1.27-0.61-3.03-0.09-5.27l1.76-7.63c0.55-2.36,1.39-4.16,2.52-5.39c1.14-1.23,2.79-1.84,4.96-1.84
		c1.94,0,3.21,0.53,3.81,1.57c0.6,1.05,0.67,2.6,0.2,4.64l-0.39,1.71h-2.85l0.35-1.52c0.23-0.99,0.36-1.76,0.4-2.29
		c0.03-0.53-0.09-0.96-0.39-1.28c-0.29-0.32-0.84-0.48-1.64-0.48c-0.82,0-1.47,0.17-1.95,0.52c-0.48,0.35-0.85,0.83-1.12,1.44
		c-0.27,0.61-0.52,1.43-0.76,2.47l-1.98,8.56c-0.25,1.1-0.36,1.96-0.33,2.59c0.03,0.62,0.22,1.07,0.56,1.33
		c0.34,0.27,0.86,0.4,1.57,0.4c0.76,0,1.37-0.17,1.82-0.51c0.45-0.34,0.79-0.8,1.03-1.39c0.23-0.59,0.47-1.39,0.7-2.4l0.37-1.6h2.85
		l-0.37,1.6c-0.5,2.15-1.28,3.8-2.36,4.95c-1.07,1.15-2.62,1.72-4.63,1.72C529.44,213.16,528.09,212.52,527.51,211.25z"/>
	<path d="M543.96,211.36c-0.64-1.2-0.7-2.94-0.17-5.22l1.89-8.19c0.52-2.24,1.37-3.94,2.56-5.09s2.84-1.73,4.93-1.73
		s3.47,0.58,4.12,1.75c0.65,1.17,0.71,2.86,0.2,5.08l-1.9,8.22c-0.52,2.24-1.38,3.96-2.58,5.17c-1.2,1.21-2.85,1.81-4.93,1.81
		C545.97,213.16,544.59,212.56,543.96,211.36z M551.13,209.8c0.54-0.66,0.97-1.65,1.28-2.99l2.19-9.47c0.3-1.32,0.33-2.29,0.09-2.92
		c-0.24-0.63-0.93-0.95-2.05-0.95c-1.14,0-1.98,0.32-2.51,0.95c-0.54,0.63-0.96,1.6-1.26,2.92l-2.19,9.47
		c-0.31,1.33-0.34,2.33-0.1,2.99c0.24,0.66,0.93,0.99,2.07,0.99C549.76,210.78,550.59,210.45,551.13,209.8z"/>
	<path d="M564.65,191.31H569c2.19,0,3.69,0.45,4.5,1.35c0.82,0.9,0.99,2.36,0.52,4.39c-0.64,2.77-1.92,4.45-3.83,5.04l0.57,10.83
		h-2.91l-0.49-10.14h-2.35l-2.34,10.14h-3.01L564.65,191.31z M566.66,200.62c1.3,0,2.29-0.26,2.97-0.77
		c0.68-0.52,1.17-1.45,1.49-2.8c0.21-0.89,0.27-1.59,0.19-2.09c-0.08-0.51-0.34-0.88-0.78-1.12c-0.44-0.24-1.12-0.36-2.02-0.36
		h-1.33l-1.65,7.15H566.66z"/>
	<path d="M581.16,191.31h4.69c2.33,0,3.86,0.53,4.58,1.6c0.72,1.07,0.82,2.73,0.3,4.99l-1.84,7.95c-0.55,2.38-1.44,4.16-2.66,5.32
		c-1.22,1.16-2.93,1.75-5.14,1.75h-4.93L581.16,191.31z M581.4,210.76c1.05,0,1.86-0.2,2.42-0.61c0.57-0.41,0.99-0.96,1.27-1.67
		c0.28-0.7,0.58-1.76,0.91-3.19l1.62-7.01c0.28-1.23,0.42-2.17,0.42-2.81c0-0.65-0.21-1.13-0.61-1.44
		c-0.41-0.31-1.12-0.47-2.13-0.47h-1.63l-3.97,17.2H581.4z"/>
	<path d="M598.05,191.31h2.96l-4.99,21.61h-2.96L598.05,191.31z"/>
	<path d="M607.17,191.31h2.05l2.82,14.35l3.31-14.35h2.51l-4.99,21.61h-1.92l-2.81-14.75l-3.41,14.75h-2.56L607.17,191.31z"/>
	<path d="M620.2,211.33c-0.59-1.24-0.6-3.07-0.04-5.51l1.67-7.23c0.39-1.67,0.88-3.05,1.47-4.12c0.59-1.07,1.38-1.9,2.36-2.48
		c0.98-0.58,2.2-0.87,3.68-0.87c1.99,0,3.31,0.51,3.96,1.52c0.65,1.01,0.72,2.61,0.22,4.77l-0.18,0.8h-2.83l0.15-0.67
		c0.24-1.03,0.36-1.83,0.36-2.39c0-0.56-0.16-0.98-0.5-1.27c-0.33-0.28-0.89-0.43-1.67-0.43c-0.84,0-1.5,0.19-2,0.57
		c-0.5,0.38-0.88,0.89-1.14,1.53c-0.26,0.64-0.52,1.49-0.77,2.56l-1.85,8c-0.38,1.65-0.46,2.84-0.22,3.56
		c0.23,0.72,0.92,1.08,2.06,1.08c1.12,0,1.98-0.39,2.58-1.17c0.6-0.78,1.1-2.04,1.5-3.76l0.34-1.49h-2.75l0.49-2.13h5.47l-2.47,10.7
		h-1.89l0.28-2.48c-1.1,1.83-2.59,2.75-4.48,2.75C622.06,213.18,620.79,212.57,620.2,211.33z"/>
	<path d="M646.01,211.81c-0.62-0.9-0.76-2.07-0.43-3.51c0.29-1.26,0.83-2.4,1.63-3.4c0.79-1.01,1.78-1.95,2.96-2.84l-0.33-1.09
		c-0.33-1.03-0.56-1.92-0.69-2.68c-0.13-0.76-0.1-1.55,0.1-2.39c0.33-1.44,1.01-2.6,2.04-3.47c1.03-0.87,2.25-1.31,3.68-1.31
		c1.33,0,2.35,0.36,3.04,1.08c0.7,0.72,0.9,1.69,0.62,2.92c-0.29,1.26-0.96,2.48-2,3.64c-1.04,1.16-2.27,2.31-3.69,3.43l2.07,5.12
		c0.75-1,1.43-2.44,2.06-4.32h2.83c-0.23,1-0.69,2.07-1.37,3.21c-0.68,1.15-1.39,2.11-2.12,2.89c0.18,0.32,0.43,0.58,0.75,0.79
		s0.69,0.31,1.1,0.31l-0.68,2.93h-0.37c-0.48,0-0.9-0.11-1.25-0.32c-0.35-0.21-0.62-0.43-0.82-0.65c-0.2-0.22-0.5-0.59-0.89-1.11
		c-0.66,0.64-1.43,1.15-2.3,1.53c-0.87,0.38-1.81,0.57-2.83,0.57C647.66,213.16,646.63,212.71,646.01,211.81z M652.95,209.18
		l-2.13-5.09c-0.55,0.55-1.05,1.2-1.48,1.95c-0.43,0.75-0.73,1.5-0.91,2.27c-0.16,0.71-0.16,1.3,0.02,1.77
		c0.17,0.47,0.58,0.71,1.22,0.71C650.75,210.78,651.85,210.25,652.95,209.18z M654.45,198.06c0.66-1.01,1.1-1.99,1.32-2.93
		c0.12-0.52,0.06-0.92-0.19-1.21c-0.24-0.29-0.63-0.44-1.16-0.44c-0.61,0-1.1,0.24-1.5,0.71c-0.39,0.47-0.67,1.05-0.82,1.72
		c-0.17,0.75-0.23,1.5-0.17,2.25c0.06,0.76,0.18,1.59,0.38,2.49C653.07,199.94,653.79,199.07,654.45,198.06z"/>
	<path d="M677.58,191.31h2.96l-0.23,17.52l7.89-17.52h2.93l-4.59,21.61h-2.43l3.38-15.68l-7.28,15.68h-1.71l-0.01-15.68l-3.86,15.68
		h-2.45L677.58,191.31z"/>
	<path d="M700.92,191.31h2.91l-0.37,21.61h-2.85l0.27-5.44h-4.4l-2.3,5.44h-2.83L700.92,191.31z M700.97,205.32l0.43-9.74
		l-4.03,9.74H700.97z"/>
	<path d="M709.59,211.48c-0.69-1.12-0.87-2.66-0.52-4.61l2.83-0.72c-0.23,1.39-0.22,2.51,0.04,3.36c0.26,0.85,0.91,1.28,1.96,1.28
		c0.78,0,1.42-0.22,1.92-0.65c0.5-0.44,0.84-1.06,1.03-1.88c0.21-0.89,0.19-1.63-0.05-2.21c-0.24-0.59-0.68-1.24-1.34-1.95
		l-2.89-3.2c-0.58-0.64-0.95-1.33-1.11-2.07c-0.16-0.74-0.12-1.64,0.13-2.71c0.37-1.58,1.1-2.81,2.21-3.68
		c1.11-0.87,2.44-1.31,4.01-1.31c1.71,0,2.89,0.45,3.55,1.36c0.66,0.91,0.86,2.31,0.6,4.21l-2.72,0.69c0.2-1.26,0.18-2.24-0.06-2.92
		c-0.24-0.68-0.88-1.03-1.91-1.03c-0.76,0-1.4,0.2-1.9,0.6c-0.5,0.4-0.84,0.99-1.02,1.77c-0.15,0.64-0.17,1.18-0.05,1.61
		c0.11,0.44,0.37,0.88,0.79,1.32l2.91,3.2c0.75,0.84,1.29,1.74,1.63,2.72s0.36,2.09,0.07,3.33c-0.37,1.58-1.14,2.84-2.31,3.76
		c-1.17,0.92-2.53,1.39-4.05,1.39C711.54,213.16,710.28,212.6,709.59,211.48z"/>
	<path d="M730.44,193.55h-3.65l0.52-2.24h10.22l-0.52,2.24h-3.55l-4.47,19.36h-3.02L730.44,193.55z"/>
	<path d="M742.27,191.31h8.38l-0.52,2.24h-5.36l-1.65,7.15h4.35l-0.49,2.13h-4.35l-1.83,7.92h5.41l-0.5,2.16h-8.43L742.27,191.31z"
		/>
	<path d="M755.79,191.31h4.35c2.19,0,3.69,0.45,4.5,1.35c0.82,0.9,0.99,2.36,0.52,4.39c-0.64,2.77-1.92,4.45-3.83,5.04l0.57,10.83
		h-2.91l-0.49-10.14h-2.35l-2.34,10.14h-3.01L755.79,191.31z M757.8,200.62c1.3,0,2.29-0.26,2.97-0.77c0.68-0.52,1.17-1.45,1.49-2.8
		c0.21-0.89,0.27-1.59,0.19-2.09c-0.08-0.51-0.34-0.88-0.78-1.12c-0.44-0.24-1.12-0.36-2.02-0.36h-1.33l-1.65,7.15H757.8z"/>
	<path d="M772.46,191.31h2.96l-4.99,21.61h-2.96L772.46,191.31z"/>
	<path d="M781.58,191.31h2.05l2.82,14.35l3.31-14.35h2.51l-4.99,21.61h-1.92l-2.81-14.75l-3.41,14.75h-2.56L781.58,191.31z"/>
	<path d="M794.62,211.33c-0.59-1.24-0.6-3.07-0.04-5.51l1.67-7.23c0.39-1.67,0.88-3.05,1.47-4.12c0.6-1.07,1.38-1.9,2.36-2.48
		c0.98-0.58,2.21-0.87,3.68-0.87c1.99,0,3.31,0.51,3.96,1.52c0.65,1.01,0.72,2.61,0.22,4.77l-0.18,0.8h-2.83l0.15-0.67
		c0.24-1.03,0.36-1.83,0.36-2.39c0.01-0.56-0.16-0.98-0.49-1.27c-0.33-0.28-0.89-0.43-1.67-0.43c-0.84,0-1.5,0.19-2,0.57
		c-0.5,0.38-0.88,0.89-1.14,1.53c-0.27,0.64-0.52,1.49-0.76,2.56l-1.85,8c-0.38,1.65-0.46,2.84-0.22,3.56
		c0.24,0.72,0.92,1.08,2.06,1.08c1.12,0,1.98-0.39,2.58-1.17c0.6-0.78,1.1-2.04,1.5-3.76l0.34-1.49h-2.75l0.49-2.13h5.47l-2.47,10.7
		h-1.89l0.28-2.48c-1.1,1.83-2.59,2.75-4.48,2.75C796.47,213.18,795.2,212.57,794.62,211.33z"/>
	<path d="M820.33,211.48c-0.69-1.12-0.87-2.66-0.52-4.61l2.83-0.72c-0.23,1.39-0.22,2.51,0.04,3.36c0.26,0.85,0.91,1.28,1.96,1.28
		c0.78,0,1.42-0.22,1.92-0.65c0.5-0.44,0.85-1.06,1.03-1.88c0.21-0.89,0.19-1.63-0.05-2.21c-0.24-0.59-0.68-1.24-1.34-1.95
		l-2.89-3.2c-0.58-0.64-0.95-1.33-1.11-2.07c-0.16-0.74-0.12-1.64,0.13-2.71c0.37-1.58,1.1-2.81,2.21-3.68
		c1.11-0.87,2.44-1.31,4.01-1.31c1.71,0,2.89,0.45,3.55,1.36c0.66,0.91,0.86,2.31,0.6,4.21l-2.72,0.69c0.2-1.26,0.18-2.24-0.06-2.92
		c-0.24-0.68-0.88-1.03-1.91-1.03c-0.76,0-1.4,0.2-1.9,0.6c-0.5,0.4-0.84,0.99-1.02,1.77c-0.15,0.64-0.17,1.18-0.05,1.61
		c0.11,0.44,0.37,0.88,0.79,1.32l2.91,3.2c0.75,0.84,1.29,1.74,1.63,2.72c0.33,0.98,0.36,2.09,0.07,3.33
		c-0.37,1.58-1.14,2.84-2.31,3.76c-1.17,0.92-2.53,1.39-4.05,1.39C822.28,213.16,821.03,212.6,820.33,211.48z"/>
	<path d="M841.18,193.55h-3.66l0.52-2.24h10.22l-0.52,2.24h-3.55l-4.47,19.36h-3.01L841.18,193.55z"/>
	<path d="M850.22,212.25c-0.71-0.6-1.09-1.45-1.16-2.53c-0.07-1.09,0.08-2.44,0.46-4.08l3.31-14.32h2.88l-3.34,14.46
		c-0.38,1.64-0.47,2.88-0.29,3.74c0.19,0.85,0.86,1.28,2.01,1.28c1.16,0,2.02-0.43,2.6-1.28c0.58-0.85,1.06-2.1,1.44-3.74
		l3.34-14.46h2.85l-3.31,14.32c-0.38,1.64-0.85,3-1.42,4.08c-0.57,1.09-1.34,1.93-2.32,2.53c-0.98,0.61-2.22,0.91-3.73,0.91
		S850.92,212.86,850.22,212.25z"/>
	<path d="M870.16,191.31h4.7c2.33,0,3.86,0.53,4.58,1.6c0.72,1.07,0.82,2.73,0.3,4.99l-1.84,7.95c-0.55,2.38-1.44,4.16-2.66,5.32
		c-1.22,1.16-2.93,1.75-5.14,1.75h-4.93L870.16,191.31z M870.39,210.76c1.05,0,1.86-0.2,2.42-0.61c0.57-0.41,0.99-0.96,1.26-1.67
		c0.28-0.7,0.58-1.76,0.91-3.19l1.62-7.01c0.28-1.23,0.42-2.17,0.42-2.81c0-0.65-0.21-1.13-0.61-1.44
		c-0.41-0.31-1.12-0.47-2.13-0.47h-1.63l-3.97,17.2H870.39z"/>
	<path d="M887.04,191.31H890l-4.99,21.61h-2.96L887.04,191.31z"/>
	<path d="M892.51,211.36c-0.64-1.2-0.7-2.94-0.17-5.22l1.89-8.19c0.52-2.24,1.37-3.94,2.56-5.09s2.84-1.73,4.93-1.73
		c2.1,0,3.47,0.58,4.12,1.75c0.65,1.17,0.71,2.86,0.2,5.08l-1.9,8.22c-0.52,2.24-1.38,3.96-2.58,5.17c-1.2,1.21-2.85,1.81-4.93,1.81
		C894.53,213.16,893.15,212.56,892.51,211.36z M899.69,209.8c0.54-0.66,0.97-1.65,1.28-2.99l2.19-9.47c0.3-1.32,0.33-2.29,0.09-2.92
		c-0.25-0.63-0.93-0.95-2.05-0.95c-1.14,0-1.98,0.32-2.51,0.95c-0.54,0.63-0.96,1.6-1.26,2.92l-2.19,9.47
		c-0.31,1.33-0.34,2.33-0.1,2.99c0.24,0.66,0.93,0.99,2.07,0.99C898.31,210.78,899.14,210.45,899.69,209.8z"/>
	<path d="M909.5,211.48c-0.69-1.12-0.87-2.66-0.52-4.61l2.83-0.72c-0.23,1.39-0.22,2.51,0.04,3.36c0.26,0.85,0.91,1.28,1.96,1.28
		c0.78,0,1.42-0.22,1.92-0.65c0.5-0.44,0.84-1.06,1.03-1.88c0.21-0.89,0.19-1.63-0.05-2.21c-0.24-0.59-0.68-1.24-1.34-1.95
		l-2.89-3.2c-0.58-0.64-0.95-1.33-1.11-2.07c-0.16-0.74-0.12-1.64,0.13-2.71c0.37-1.58,1.1-2.81,2.21-3.68
		c1.11-0.87,2.44-1.31,4.01-1.31c1.71,0,2.89,0.45,3.55,1.36c0.66,0.91,0.86,2.31,0.6,4.21l-2.72,0.69c0.2-1.26,0.18-2.24-0.06-2.92
		c-0.24-0.68-0.88-1.03-1.91-1.03c-0.76,0-1.4,0.2-1.9,0.6c-0.5,0.4-0.84,0.99-1.02,1.77c-0.15,0.64-0.17,1.18-0.05,1.61
		c0.11,0.44,0.37,0.88,0.79,1.32l2.91,3.2c0.75,0.84,1.29,1.74,1.63,2.72c0.33,0.98,0.36,2.09,0.07,3.33
		c-0.37,1.58-1.14,2.84-2.31,3.76c-1.17,0.92-2.53,1.39-4.05,1.39C911.45,213.16,910.19,212.6,909.5,211.48z"/>
</g>
</svg>
